<svg width="6" height="8" viewBox="0 0 6 8" fill="none" xmlns="http://www.w3.org/2000/svg">
<path d="M0.313641 8C0.276307 8 0.248307 7.986 0.229641 7.958C0.220307 7.92067 0.224974 7.888 0.243641 7.86L2.77764 4.402C2.82431 4.33667 2.82431 4.276 2.77764 4.22L0.313641 0.859999C0.294974 0.832 0.290307 0.804 0.299641 0.776C0.318307 0.738666 0.346307 0.719999 0.383641 0.719999C0.495641 0.719999 0.588974 0.766666 0.663641 0.859999L2.98764 4.066C2.98764 4.07533 2.99697 4.08 3.01564 4.08C3.03431 4.08 3.04364 4.07533 3.04364 4.066L5.36764 0.859999C5.45164 0.766666 5.54497 0.719999 5.64764 0.719999C5.68497 0.719999 5.70831 0.738666 5.71764 0.776C5.73631 0.804 5.73631 0.832 5.71764 0.859999L3.25364 4.22C3.20697 4.276 3.20697 4.33667 3.25364 4.402L5.78764 7.86C5.80631 7.888 5.80631 7.92067 5.78764 7.958C5.77831 7.986 5.75497 8 5.71764 8C5.61497 8 5.52164 7.95333 5.43764 7.86L3.04364 4.556H3.01564H2.98764L0.593641 7.86C0.518974 7.95333 0.425641 8 0.313641 8Z" fill="#272727"/>
</svg>
