<svg width="27" height="11" viewBox="0 0 27 11" fill="none" xmlns="http://www.w3.org/2000/svg">
<path d="M5.43471 9.87984L7.66539 8.10645C8.20075 7.68262 8.51304 7.03573 8.51304 6.35537V3.45548C11.8814 2.36245 15.5285 2.3513 18.908 3.45548V6.36652C18.908 7.04688 19.2203 7.69378 19.7557 8.11761L21.9752 9.87984C22.8675 10.5825 24.139 10.5156 24.942 9.71254L26.3027 8.35183C27.195 7.45955 27.195 5.97615 26.247 5.13965C19.0976 -1.17318 8.32344 -1.17318 1.17411 5.13965C0.226067 5.97615 0.226067 7.45955 1.11834 8.35183L2.47905 9.71254C3.27095 10.5156 4.54243 10.5825 5.43471 9.87984Z" fill="white"/>
</svg>
