<svg width="22" height="21" viewBox="0 0 22 21" fill="none" xmlns="http://www.w3.org/2000/svg">
<path d="M19.0632 14.6351L16.2301 14.3117C15.5498 14.2336 14.8805 14.4678 14.4009 14.9474L12.3486 16.9998C9.19206 15.3936 6.60437 12.8171 4.99821 9.64937L7.06167 7.58591C7.54129 7.10629 7.77552 6.43706 7.69744 5.75668L7.37398 2.94591C7.24013 1.81937 6.29206 0.97168 5.15437 0.97168H3.22475C1.96437 0.97168 0.915904 2.02014 0.993981 3.28053C1.58513 12.8059 9.20321 20.4128 18.7174 21.004C19.9778 21.0821 21.0263 20.0336 21.0263 18.7732V16.8436C21.0374 15.7171 20.1897 14.769 19.0632 14.6351Z" fill="white"/>
</svg>
