<svg width="28" height="28" viewBox="0 0 28 28" fill="none" xmlns="http://www.w3.org/2000/svg">
<g clip-path="url(#clip0_159_11107)">
<path d="M5.43471 17.8798L7.66539 16.1065C8.20075 15.6826 8.51304 15.0357 8.51304 14.3554V11.4555C11.8814 10.3625 15.5285 10.3513 18.908 11.4555V14.3665C18.908 15.0469 19.2203 15.6938 19.7557 16.1176L21.9752 17.8798C22.8675 18.5825 24.139 18.5156 24.942 17.7125L26.3027 16.3518C27.195 15.4596 27.195 13.9762 26.247 13.1396C19.0976 6.82682 8.32344 6.82682 1.17411 13.1396C0.226067 13.9762 0.226067 15.4596 1.11834 16.3518L2.47905 17.7125C3.27095 18.5156 4.54243 18.5825 5.43471 17.8798Z" fill="white"/>
</g>
<defs>
<clipPath id="clip0_159_11107">
<rect width="26.7682" height="26.7682" fill="white" transform="translate(0.404518 0.61438)"/>
</clipPath>
</defs>
</svg>
