<svg width="12" height="25" viewBox="0 0 12 25" fill="none" xmlns="http://www.w3.org/2000/svg">
<path fill-rule="evenodd" clip-rule="evenodd" d="M6 8.26318C7.1 8.26318 8 7.36318 8 6.26318C8 5.16318 7.1 4.26318 6 4.26318C4.9 4.26318 4 5.16318 4 6.26318C4 7.36318 4.9 8.26318 6 8.26318ZM6 10.2632C4.9 10.2632 4 11.1632 4 12.2632C4 13.3632 4.9 14.2632 6 14.2632C7.1 14.2632 8 13.3632 8 12.2632C8 11.1632 7.1 10.2632 6 10.2632ZM4 18.2632C4 17.1632 4.9 16.2632 6 16.2632C7.1 16.2632 8 17.1632 8 18.2632C8 19.3632 7.1 20.2632 6 20.2632C4.9 20.2632 4 19.3632 4 18.2632Z" fill="white"/>
</svg>
