<svg width="24" height="24" viewBox="0 0 24 24" fill="none" xmlns="http://www.w3.org/2000/svg">
<path fill-rule="evenodd" clip-rule="evenodd" d="M5.875 8.6251H3.5C2.948 8.6251 2.5 9.0731 2.5 9.6251V14.3751C2.5 14.9271 2.948 15.3751 3.5 15.3751H5.875L9.854 18.7461C10.504 19.2971 11.5 18.8351 11.5 17.9831V6.0171C11.5 5.1651 10.503 4.7031 9.854 5.2541L5.875 8.6251Z" stroke="white" stroke-width="1.5" stroke-linecap="round" stroke-linejoin="round"/>
<path d="M15.537 15.978C16.699 15.256 17.5 13.754 17.5 12.005C17.5 10.256 16.699 8.75297 15.537 8.02197" stroke="white" stroke-width="1.5" stroke-linecap="round" stroke-linejoin="round"/>
<path d="M18.505 19.065C20.313 17.51 21.5 14.93 21.5 12.003C21.5 9.07204 20.311 6.49004 18.5 4.93604" stroke="white" stroke-width="1.5" stroke-linecap="round" stroke-linejoin="round"/>
</svg>
